<?xml version="1.0" encoding="utf-8"?>
<!-- Generator: Adobe Illustrator 16.0.0, SVG Export Plug-In . SVG Version: 6.00 Build 0)  -->
<!DOCTYPE svg PUBLIC "-//W3C//DTD SVG 1.1//EN" "http://www.w3.org/Graphics/SVG/1.1/DTD/svg11.dtd">
<svg version="1.1" id="donut" xmlns="http://www.w3.org/2000/svg" xmlns:xlink="http://www.w3.org/1999/xlink" x="0px" y="0px"
	 width="208px" height="210px" viewBox="0 0 208 210" enable-background="new 0 0 208 210" xml:space="preserve">
<g id="donut_group">
	<path fill="#F6B545" d="M104,14.091C54,14.091,13.091,55,13.091,105S54,195.909,104,195.909S194.909,155,194.909,105
		S154,14.091,104,14.091 M104,136.818c-17.727,0-31.818-14.09-31.818-31.818c0-17.727,14.092-31.818,31.818-31.818
		c17.729,0,31.818,14.092,31.818,31.818C135.818,122.729,121.729,136.818,104,136.818"/>
	<path fill="#014463" d="M104,205C49,205,4,159.998,4,105C4,50,49,5,104,5c54.998,0,100,45,100,100C204,159.998,158.998,205,104,205
		 M104,14.091C54,14.091,13.091,55,13.091,105S54,195.909,104,195.909S194.909,155,194.909,105S154,14.091,104,14.091 M104,136.818
		c-17.727,0-31.818-14.09-31.818-31.818c0-17.727,14.092-31.818,31.818-31.818c17.729,0,31.818,14.092,31.818,31.818
		C135.818,122.729,121.729,136.818,104,136.818 M104,82.272c-12.727,0-22.728,10.001-22.728,22.728S91.273,127.728,104,127.728
		s22.728-10.001,22.728-22.728S116.727,82.272,104,82.272"/>
	<path fill="#D37300" d="M148.997,25.91c17.276,16.819,27.73,39.999,27.73,65.454c0,50-40.909,90.909-90.909,90.909
		c-16.364,0-31.818-4.545-45-11.816c16.362,15.452,38.637,25.453,63.182,25.453c50,0,90.909-40.909,90.909-90.909
		C194.909,71.364,176.27,41.818,148.997,25.91"/>
	<path fill="#ECEFF9" d="M171.729,113.639c3.179-1.82,4.999-5.003,4.999-8.639s-1.82-6.818-4.999-8.636
		c-7.728-5-10.91-15.001-7.728-23.183c1.362-3.183,0.91-6.818-1.362-9.546c-2.273-3.18-5.456-4.545-9.549-4.545
		c-9.091,0.455-17.725-5.453-19.997-14.544c-0.91-3.638-3.64-5.911-6.818-7.273c-3.64-1.365-7.275-0.455-10.001,1.817
		c-7.275,5.908-17.729,5.908-25,0c-2.728-2.272-6.365-2.728-10.001-1.817c-3.635,0.907-5.908,3.635-6.818,7.273
		c-2.273,8.636-10.909,14.999-20,14.544c-3.638,0-7.273,1.365-9.546,4.545c-2.273,2.728-2.728,6.363-1.363,9.546
		c3.18,8.636,0,18.182-7.728,23.183c-2.728,1.817-4.546,5-4.546,8.636s1.818,6.818,5.001,8.639
		c7.726,4.998,10.908,14.998,7.726,23.18c-1.363,3.183-0.908,6.818,1.365,9.543c2.272,3.184,5.453,4.546,9.091,4.546h0.908
		c8.638,0,16.819,5.913,19.092,14.546c0.91,3.636,3.635,5.908,6.818,7.275c3.636,1.363,7.273,0.453,10.001-1.819
		c7.271-5.908,17.725-5.908,25,0c2.726,2.272,6.818,3.183,10.001,1.819c3.636-0.909,5.908-3.64,6.818-7.275
		c2.272-8.633,10.906-14.998,19.997-14.546c3.636,0.457,7.275-1.362,9.549-4.546c2.272-2.725,2.725-6.36,1.362-9.543
		C160.818,128.637,164.001,118.637,171.729,113.639 M104,136.818c-17.727,0-31.818-14.09-31.818-31.818
		c0-17.727,14.092-31.818,31.818-31.818c17.729,0,31.818,14.092,31.818,31.818C135.818,122.729,121.729,136.818,104,136.818"/>
	<path fill="#014463" d="M84.908,182.272c-2.272,0-4.09-0.452-6.363-0.909c-6.363-2.273-10.909-7.271-12.729-13.637
		c-1.363-4.546-5.908-8.182-10.909-7.724c-6.818,0.452-13.181-2.73-17.272-8.186c-3.638-5.451-4.545-12.27-2.272-18.182
		c1.817-4.546,0-9.544-4.091-12.27c-5.455-3.64-9.091-9.548-9.091-16.366s3.181-12.727,9.091-16.364
		c4.091-2.726,5.908-7.726,4.091-12.271c-2.273-5.91-1.365-12.729,2.272-18.182C41.727,52.728,48.09,49.547,54.908,50
		c5,0.455,9.546-3.18,10.909-7.726c1.82-6.363,6.365-11.363,12.729-13.636c6.363-1.818,13.637-0.91,18.637,3.635
		c4.091,3.183,9.544,3.183,13.637,0c5.455-4.09,12.273-5.453,18.635-3.18c6.365,2.273,10.91,7.271,12.727,13.636
		c1.367,4.545,5.912,7.726,10.91,7.726c6.818-0.455,13.184,2.728,17.271,8.183c3.636,5.453,4.546,12.271,2.273,18.182
		c-1.815,4.546,0,9.544,4.093,12.271c5.455,3.638,9.091,9.546,9.091,16.366c0,6.818-3.183,12.727-9.091,16.362
		c-4.093,2.726-5.908,7.728-4.093,12.273c2.272,5.908,1.362,12.727-2.273,18.182c-4.088,5.456-10.453,8.634-17.271,8.181
		c-4.998-0.452-9.543,3.184-10.91,7.729c-1.816,6.361-6.361,11.363-12.727,13.637c-6.361,2.272-13.18,0.91-18.635-3.184
		c-4.093-3.182-9.546-3.182-13.637,0C93.544,180.91,89.454,182.272,84.908,182.272 M55.363,150.912
		c8.636,0,16.819,5.908,19.092,14.541c0.908,3.641,3.635,5.913,6.818,7.275c3.636,1.363,7.271,0.453,9.999-1.819
		c7.273-5.908,17.727-5.908,25.002,0c2.726,2.272,6.818,3.183,9.996,1.819c3.641-0.909,5.913-3.635,6.818-7.275
		c2.273-8.633,10.911-14.998,20.002-14.541c3.636,0.452,7.271-1.367,9.544-4.546c2.272-2.729,2.729-6.365,1.367-9.548
		c-3.183-8.634,0-18.182,7.724-23.18c3.183-1.82,5.003-5.003,5.003-8.639s-1.82-6.818-5.003-8.636
		c-7.724-5-10.906-14.999-7.724-23.183c1.362-3.18,0.905-6.818-1.367-9.546c-2.272-3.18-5.451-4.545-9.544-4.545
		c-9.091,0.455-17.729-5.453-20.002-14.544c-0.905-3.638-3.635-5.911-6.818-7.273c-3.635-1.363-7.271-0.455-9.996,1.817
		c-7.275,5.911-17.729,5.911-25.002,0c-2.728-2.272-6.363-2.728-9.999-1.817c-3.638,0.91-5.91,3.635-6.818,7.273
		c-2.273,8.636-10.911,14.999-20.002,14.544c-3.635,0-7.271,1.365-9.543,4.545c-2.273,2.728-2.728,6.366-1.365,9.546
		c3.183,8.636,0,18.182-7.726,23.183c-2.728,1.817-4.546,5-4.546,8.636s1.818,6.818,4.999,8.639
		c7.728,4.998,10.911,14.998,7.728,23.18c-1.363,3.183-0.91,6.818,1.363,9.548c2.273,3.179,5.456,4.546,9.091,4.546H55.363z"/>
	<path fill="#93B4D8" d="M72.182,105c0-17.727,14.092-31.818,31.818-31.818c7.729,0,14.547,2.728,20.002,7.273
		c-5.913-7.273-14.547-11.819-24.547-11.819c-17.727,0-31.818,14.091-31.818,31.818c0,10,4.545,18.634,11.819,24.547
		C74.91,119.547,72.182,112.729,72.182,105"/>
	<g id="sprinkles">
		<path fill="#93B4D8" d="M128.658,55.238c-1.563-2.14-3.802-4.385-5.118-6.897c-0.054-0.102-0.124-0.2-0.201-0.295
			c-0.662-1.103-2.398-1.667-3.303-0.51c-0.3,0.383-0.535,0.773-0.622,1.219c-0.182,0.613-0.08,1.316,0.199,1.882
			c0.582,1.18,1.462,2.23,2.244,3.281c0.483,0.649,0.965,1.298,1.436,1.958c0.18,0.251,0.353,0.508,0.525,0.765
			c0.092,0.123,0.16,0.258,0.223,0.396c0.012,0.031,0.026,0.072,0.048,0.128C125.379,60.821,130.675,57.996,128.658,55.238z"/>
		<path fill="#C35B26" d="M105.598,50.831c-3.614-1.17-7.355-1.931-11.016-2.94c-2.726-0.751-3.871,3.444-1.163,4.219
			c3.655,1.046,7.365,1.889,10.984,3.06C107.171,56.065,108.347,51.72,105.598,50.831z"/>
		<path fill="#C3FF26" d="M77.078,59c-0.081-2.696-3.99-2.66-4.156,0c-0.22,3.52-1.299,6.967-1.297,10.5
			c0.002,3.073,4.636,3.05,4.75,0C76.506,65.983,77.184,62.525,77.078,59z"/>
		<path fill="#C30026" d="M148.866,76.202c-3.275,0.442-6.599-0.049-9.776-0.842c-2.824-0.705-3.813,3.284-1.18,4.279
			c3.724,1.407,8.307,1.751,12.224,1.158C153.184,80.335,151.853,75.799,148.866,76.202z"/>
		<path fill="#FFBC26" d="M74.639,142.75c-1.542-3.203-1.896-6.867-2.582-10.317c-0.467-2.349-4.391-1.83-4.189,0.567
			c0.349,4.158,0.752,8.409,2.494,12.25C71.67,148.136,76.025,145.631,74.639,142.75z"/>
		<path fill="#00BC26" d="M159.636,95.695c-3.499-1.175-6.896-2.461-10.636-2.523c-3.012-0.05-2.988,4.54,0,4.656
			c3.265,0.127,6.313,1.428,9.364,2.477C161.285,101.309,162.546,96.672,159.636,95.695z"/>
		<path fill="#00BCFF" d="M57.859,88.859c-2.282,2.224-4.768,4.227-7.05,6.45c-2.21,2.153,1.202,5.567,3.381,3.381
			c2.248-2.256,4.702-4.294,6.95-6.55C63.256,90.018,60.003,86.771,57.859,88.859z"/>
		<path fill="#FF94FF" d="M146.207,106.392c-0.925-2.867-4.861-1.648-4.414,1.217c0.517,3.316-0.687,6.483-1.279,9.706
			c-0.606,3.301,4.538,4.6,4.973,1.371C146.027,114.658,147.505,110.415,146.207,106.392z"/>
		<path fill="#B4946E" d="M62.5,110.781c-2.673-0.32-5.259-1.48-7.779-2.361c-1.887-0.66-4.667-1.672-6.262,0.039
			c-0.994,1.066-0.753,2.633,0.441,3.423c0.727,0.48,1.415,0.417,2.224,0.564c1.224,0.222,2.42,0.678,3.593,1.076
			c2.522,0.855,5.079,1.808,7.783,1.696C65.427,115.098,65.279,111.114,62.5,110.781z"/>
		<g>
			<path fill="#B4DF6E" d="M155.308,136.044c-3.544-1.521-6.457-4.162-10.179-5.326c-2.524-0.79-4.31,3.26-1.823,4.326
				c3.177,1.363,5.882,3.519,8.911,5.151c0.788,0.425,1.603,0.808,2.403,1.209c0.318,0.16,0.646,0.305,0.968,0.459
				c0.11,0.053,0.593,0.219,0.974,0.348v-0.118c1.297,0.413,2.802,0.018,3.125-1.642
				C160.235,137.633,157.317,136.906,155.308,136.044z"/>
			<path fill="#B4DF6E" d="M156.562,142.211v0.015C157.364,142.48,157.044,142.375,156.562,142.211z"/>
		</g>
		<path fill="#B43DFF" d="M128.086,146.876c-4.86-1.359-9.979-2.21-14.915-3.31c-3.169-0.705-4.517,4.14-1.342,4.867
			c5.021,1.149,10.476,3.024,15.671,2.77C129.949,151.083,130.543,147.563,128.086,146.876z"/>
		<path fill="#00CEFF" d="M97.918,146.891c-3.524,1.332-6.773,3.346-10.149,5.005c-2.809,1.381-0.336,5.659,2.461,4.209
			c3.157-1.637,6.387-3.284,9.374-5.216C101.592,149.603,100.338,145.976,97.918,146.891z"/>
	</g>
</g>
</svg>
